<svg width="485" height="451" viewBox="0 0 485 451" fill="none" xmlns="http://www.w3.org/2000/svg">
<path d="M398.55 286.644C375.133 325.683 296.1 321.822 222.026 278.02C147.951 234.218 106.886 167.062 130.304 128.023C153.721 88.9839 232.754 92.8449 306.828 136.647C380.903 180.449 27.9464 176.554 398.55 286.644Z" fill="#181616"/>
<path d="M110.023 250.381C104.404 251.898 98.3393 252.111 92.2845 251.002C86.2297 249.893 80.3415 247.492 75.0609 243.978C69.7803 240.464 65.2444 235.929 61.793 230.712C58.3416 225.495 56.0643 219.732 55.1316 213.855C54.1989 207.977 54.6351 202.138 56.4075 196.774C58.1799 191.41 61.2425 186.66 65.3659 182.882C69.4892 179.103 74.5664 176.393 80.2169 174.954C85.8674 173.515 91.9447 173.386 97.9935 174.574L96.6907 190.443C93.1573 189.749 89.6072 189.825 86.3064 190.665C83.0056 191.505 80.0397 193.089 77.631 195.296C75.2224 197.503 73.4333 200.278 72.398 203.411C71.3626 206.545 71.1078 209.956 71.6526 213.389C72.1974 216.822 73.5278 220.189 75.5439 223.236C77.5601 226.284 80.2098 228.933 83.2945 230.986C86.3792 233.038 89.8188 234.441 93.3558 235.089C96.8927 235.737 100.435 235.613 103.718 234.726L102.138 207.435L110.023 250.381Z" fill="#2F2424"/>
<path d="M110.168 247.062C104.548 248.58 98.484 248.792 92.4293 247.683C86.3745 246.575 80.4862 244.173 75.2056 240.659C69.9251 237.146 65.3892 232.61 61.9378 227.394C58.4864 222.177 56.209 216.414 55.2764 210.536C54.3437 204.659 54.7799 198.819 56.5523 193.455C58.3247 188.091 61.3873 183.342 65.5106 179.563C69.634 175.784 74.7111 173.074 80.3616 171.636C86.0121 170.197 92.0895 170.067 98.1383 171.256L96.8355 187.125C93.302 186.43 89.7519 186.506 86.4511 187.347C83.1503 188.187 80.1845 189.77 77.7758 191.978C75.3671 194.185 73.5781 196.959 72.5427 200.093C71.5073 203.226 71.2525 206.637 71.7974 210.071C72.3422 213.504 73.6725 216.871 75.6887 219.918C77.7048 222.966 80.3545 225.615 83.4392 227.667C86.5239 229.72 89.9636 231.123 93.5005 231.771C97.0375 232.418 100.58 232.294 103.862 231.408L102.282 204.117L110.168 247.062Z" fill="#C17474"/>
<rect width="10.9986" height="52.6833" transform="matrix(1.01881 0.00600347 0.233957 0.952448 96.7708 234.954)" fill="#2F2424"/>
<rect width="10.9986" height="52.6833" transform="matrix(1.01881 0.00600347 0.233957 0.952448 96.1967 233.292)" fill="#C17474"/>
<rect width="92.0276" height="47.9452" rx="23.9726" transform="matrix(0.218948 0.975737 -0.994968 0.100189 148.236 166.942)" fill="#0C0B0B"/>
<rect width="92.0276" height="47.9452" rx="23.9726" transform="matrix(0.218948 0.975737 -0.994968 0.100189 146.307 160.238)" fill="#C17474"/>
<rect width="34.2933" height="7.69642" rx="3.84821" transform="matrix(0.998901 -0.04686 0.162614 0.98669 118.836 231.662)" fill="#FFFCFC"/>
<line y1="-1" x2="37.2068" y2="-1" transform="matrix(0.998687 -0.0512322 0.167304 0.985905 106.072 178.421)" stroke="black" stroke-width="2"/>
<line y1="-1" x2="37.2068" y2="-1" transform="matrix(0.998687 -0.0512322 0.167304 0.985905 107.029 184.056)" stroke="black" stroke-width="2"/>
<line y1="-1" x2="37.2068" y2="-0.428427" transform="matrix(0.998687 -0.0512322 0.167304 0.985905 107.89 189.127)" stroke="black" stroke-width="2"/>
<line y1="-1" x2="37.2068" y2="-0.428427" transform="matrix(0.998687 -0.0512322 0.167304 0.985905 108.846 194.763)" stroke="black" stroke-width="2"/>
<path d="M190.792 194.88C194.149 194.544 197.651 195.041 201.049 196.337C204.446 197.632 207.655 199.694 210.449 202.376C213.242 205.058 215.55 208.294 217.21 211.853C218.869 215.413 219.839 219.209 220.05 222.972C220.261 226.735 219.709 230.372 218.431 233.624C217.154 236.877 215.184 239.665 212.66 241.79C210.137 243.916 207.122 245.326 203.831 245.922C200.54 246.517 197.053 246.283 193.617 245.236L194.394 238.643C196.913 239.411 199.47 239.583 201.884 239.146C204.298 238.709 206.509 237.675 208.359 236.116C210.21 234.558 211.655 232.513 212.591 230.128C213.528 227.743 213.933 225.075 213.779 222.316C213.624 219.556 212.913 216.772 211.696 214.162C210.479 211.551 208.786 209.178 206.737 207.211C204.689 205.245 202.335 203.733 199.844 202.783C197.352 201.832 194.784 201.468 192.322 201.715L190.792 194.88Z" fill="#110F0F"/>
<path d="M193.098 201.034C189.749 201.407 186.247 200.947 182.84 199.687C179.433 198.427 176.206 196.397 173.387 193.742C170.569 191.087 168.228 187.872 166.532 184.326C164.836 180.779 163.827 176.989 163.575 173.223C163.323 169.458 163.835 165.81 165.075 162.539C166.315 159.269 168.252 156.456 170.748 154.3C173.245 152.144 176.24 150.699 179.52 150.067C182.8 149.435 186.285 149.632 189.726 150.643L189.023 157.253C186.499 156.511 183.944 156.367 181.538 156.831C179.133 157.294 176.936 158.354 175.105 159.935C173.274 161.516 171.854 163.579 170.945 165.977C170.035 168.376 169.66 171.051 169.844 173.812C170.029 176.574 170.77 179.354 172.014 181.954C173.257 184.555 174.974 186.913 177.041 188.86C179.108 190.807 181.474 192.296 183.973 193.22C186.471 194.144 189.039 194.481 191.495 194.207L193.098 201.034Z" fill="#110F0F"/>
<path d="M186.175 195.343C189.532 195.006 193.034 195.504 196.431 196.799C199.829 198.094 203.038 200.156 205.831 202.838C208.625 205.52 210.933 208.756 212.593 212.316C214.252 215.876 215.222 219.672 215.433 223.435C215.644 227.197 215.091 230.834 213.814 234.087C212.537 237.339 210.567 240.127 208.043 242.253C205.52 244.378 202.505 245.789 199.214 246.384C195.923 246.98 192.435 246.745 189 245.698L189.777 239.105C192.296 239.873 194.853 240.045 197.267 239.608C199.681 239.172 201.891 238.137 203.742 236.579C205.593 235.02 207.038 232.975 207.974 230.59C208.911 228.205 209.316 225.538 209.161 222.778C209.007 220.019 208.295 217.235 207.078 214.624C205.861 212.014 204.168 209.641 202.12 207.674C200.072 205.707 197.718 204.195 195.227 203.245C192.735 202.295 190.167 201.93 187.705 202.177L186.175 195.343Z" fill="#C17474"/>
<path d="M188.481 201.496C185.132 201.87 181.63 201.41 178.223 200.15C174.816 198.889 171.589 196.86 168.77 194.205C165.952 191.55 163.611 188.335 161.915 184.788C160.219 181.242 159.209 177.451 158.957 173.686C158.706 169.92 159.218 166.272 160.458 163.002C161.698 159.731 163.635 156.918 166.131 154.763C168.628 152.607 171.623 151.162 174.903 150.53C178.183 149.898 181.668 150.094 185.109 151.106L184.406 157.716C181.882 156.974 179.326 156.83 176.921 157.293C174.515 157.757 172.319 158.816 170.488 160.397C168.657 161.978 167.237 164.041 166.327 166.44C165.418 168.838 165.043 171.513 165.227 174.275C165.412 177.036 166.153 179.816 167.396 182.417C168.64 185.018 170.357 187.375 172.424 189.322C174.491 191.269 176.857 192.758 179.356 193.682C181.854 194.606 184.422 194.943 186.878 194.67L188.481 201.496Z" fill="#C17474"/>
<path d="M239.563 193.638C242.92 193.301 246.422 193.798 249.82 195.094C253.217 196.389 256.426 198.451 259.22 201.133C262.013 203.815 264.321 207.051 265.981 210.611C267.64 214.171 268.61 217.967 268.821 221.73C269.032 225.492 268.48 229.129 267.203 232.382C265.925 235.634 263.955 238.422 261.431 240.548C258.908 242.673 255.893 244.084 252.602 244.679C249.311 245.275 245.824 245.04 242.389 243.993L243.165 237.4C245.684 238.168 248.242 238.34 250.655 237.903C253.069 237.467 255.28 236.432 257.13 234.874C258.981 233.315 260.426 231.27 261.363 228.885C262.299 226.5 262.705 223.833 262.55 221.073C262.395 218.314 261.684 215.53 260.467 212.919C259.25 210.309 257.557 207.936 255.508 205.969C253.46 204.002 251.106 202.49 248.615 201.54C246.123 200.59 243.555 200.225 241.093 200.472L239.563 193.638Z" fill="#110F0F"/>
<path d="M241.869 199.791C238.52 200.164 235.018 199.705 231.611 198.445C228.204 197.184 224.977 195.154 222.158 192.499C219.34 189.844 216.999 186.629 215.303 183.083C213.607 179.537 212.598 175.746 212.346 171.981C212.094 168.215 212.606 164.567 213.846 161.297C215.086 158.026 217.023 155.213 219.52 153.057C222.016 150.902 225.011 149.457 228.291 148.825C231.571 148.192 235.056 148.389 238.498 149.401L237.794 156.01C235.27 155.269 232.715 155.125 230.309 155.588C227.904 156.052 225.707 157.111 223.876 158.692C222.046 160.273 220.625 162.336 219.716 164.735C218.806 167.133 218.431 169.808 218.615 172.57C218.8 175.331 219.541 178.111 220.785 180.712C222.028 183.312 223.745 185.67 225.812 187.617C227.879 189.564 230.245 191.053 232.744 191.977C235.242 192.901 237.811 193.238 240.267 192.965L241.869 199.791Z" fill="#110F0F"/>
<path d="M234.946 194.101C238.303 193.764 241.805 194.261 245.203 195.557C248.6 196.852 251.809 198.914 254.603 201.596C257.396 204.278 259.704 207.514 261.364 211.074C263.023 214.633 263.993 218.43 264.204 222.192C264.415 225.955 263.863 229.592 262.586 232.845C261.308 236.097 259.338 238.885 256.814 241.011C254.291 243.136 251.276 244.547 247.985 245.142C244.694 245.737 241.207 245.503 237.772 244.456L238.548 237.863C241.067 238.631 243.625 238.803 246.038 238.366C248.452 237.93 250.663 236.895 252.513 235.336C254.364 233.778 255.809 231.733 256.746 229.348C257.682 226.963 258.088 224.296 257.933 221.536C257.778 218.777 257.067 215.993 255.85 213.382C254.633 210.771 252.94 208.398 250.891 206.432C248.843 204.465 246.489 202.953 243.998 202.003C241.506 201.053 238.938 200.688 236.476 200.935L234.946 194.101Z" fill="#C17474"/>
<path d="M237.252 200.254C233.903 200.627 230.401 200.168 226.994 198.907C223.587 197.647 220.36 195.617 217.542 192.962C214.723 190.307 212.383 187.092 210.687 183.546C208.991 180 207.981 176.209 207.729 172.443C207.477 168.678 207.989 165.03 209.229 161.76C210.469 158.489 212.406 155.676 214.903 153.52C217.399 151.365 220.394 149.919 223.674 149.287C226.954 148.655 230.439 148.852 233.881 149.863L233.177 156.473C230.653 155.732 228.098 155.587 225.692 156.051C223.287 156.514 221.09 157.574 219.259 159.155C217.429 160.736 216.008 162.799 215.099 165.198C214.189 167.596 213.814 170.271 213.999 173.032C214.183 175.794 214.924 178.574 216.168 181.175C217.411 183.775 219.128 186.133 221.195 188.08C223.262 190.027 225.629 191.516 228.127 192.44C230.625 193.364 233.194 193.701 235.65 193.427L237.252 200.254Z" fill="#C17474"/>
<line y1="-5" x2="80.3008" y2="-5" transform="matrix(0.184184 0.982892 -0.997748 0.0670688 276.325 168.892)" stroke="#121111" stroke-width="10"/>
<line y1="-5" x2="80.3008" y2="-5" transform="matrix(0.184184 0.982892 -0.997748 0.0670688 270.648 165.103)" stroke="#C17474" stroke-width="10"/>
<line y1="-5" x2="86.4274" y2="-5" transform="matrix(0.318669 0.947866 -0.998635 -0.0522317 304.255 188.569)" stroke="#121111" stroke-width="10"/>
<line y1="-5" x2="86.4274" y2="-5" transform="matrix(0.318669 0.947866 -0.998635 -0.0522317 300.554 185.917)" stroke="#C17474" stroke-width="10"/>
<path d="M374.265 219.332C367.865 230.817 347.305 231.561 328.345 220.995C309.385 210.428 299.203 192.552 305.603 181.067C312.004 169.582 332.563 168.837 351.523 179.404C370.484 189.97 380.666 207.847 374.265 219.332ZM316.785 187.299C312.469 195.043 319.335 207.097 332.12 214.222C344.905 221.347 358.767 220.845 363.083 213.1C367.399 205.356 360.534 193.302 347.749 186.177C334.964 179.052 321.101 179.554 316.785 187.299Z" fill="#120F0F"/>
<path d="M368.551 211.888C362.151 223.373 341.592 224.118 322.631 213.551C303.671 202.985 293.489 185.109 299.89 173.624C306.29 162.139 326.849 161.394 345.81 171.961C364.77 182.527 374.952 200.403 368.551 211.888ZM311.072 179.855C306.756 187.599 313.621 199.653 326.406 206.778C339.191 213.903 353.054 213.401 357.37 205.657C361.686 197.913 354.82 185.859 342.035 178.734C329.25 171.609 315.387 172.111 311.072 179.855Z" fill="#C17474"/>
<line y1="-5" x2="86.4274" y2="-5" transform="matrix(0.318669 0.947866 -0.998635 -0.0522317 381.812 194.26)" stroke="#121111" stroke-width="10"/>
<line y1="-5" x2="86.4274" y2="-5" transform="matrix(0.318669 0.947866 -0.998635 -0.0522317 378.111 191.607)" stroke="#C17474" stroke-width="10"/>
<path d="M451.822 225.022C445.421 236.507 424.862 237.251 405.902 226.685C386.942 216.118 376.76 198.242 383.16 186.757C389.561 175.272 410.12 174.527 429.08 185.094C448.041 195.66 458.223 213.537 451.822 225.022ZM394.342 192.988C390.026 200.733 396.892 212.787 409.677 219.912C422.462 227.037 436.324 226.534 440.64 218.79C444.956 211.046 438.091 198.992 425.306 191.867C412.521 184.742 398.658 185.244 394.342 192.988Z" fill="#120F0F"/>
<path d="M446.108 217.579C439.708 229.064 419.149 229.808 400.188 219.242C381.228 208.675 371.046 190.799 377.447 179.314C383.847 167.829 404.406 167.084 423.367 177.651C442.327 188.218 452.509 206.094 446.108 217.579ZM388.628 185.546C384.313 193.29 391.178 205.344 403.963 212.469C416.748 219.594 430.611 219.092 434.927 211.347C439.242 203.603 432.377 191.549 419.592 184.424C406.807 177.299 392.944 177.801 388.628 185.546Z" fill="#C17474"/>
</svg>
